<svg xmlns="http://www.w3.org/2000/svg" width="368" height="331" fill="none"><g filter="url(#a)"><path fill="#9C7C9C" d="M171.116 323.167a2.112 2.112 0 0 1-1.955-1.342c-.297-.745-28.757-75.161-33.88-88.255-3.316-8.472-23.659-18.411-40.017-26.387-7.276-3.553-14.156-6.907-18.635-9.715-8.489-5.317-16.606-11.056-22.545-15.255-4.208-2.982-7.524-5.317-9.157-6.237-.891-.497-1.807-.397-2.425.298-1.04 1.143-1.263 3.951 1.559 8.125 5.766 8.572 45.115 48.103 45.51 48.5a2.09 2.09 0 0 1 0 2.957 2.07 2.07 0 0 1-2.944 0c-1.633-1.64-40.042-40.226-46.031-49.121-4.182-6.212-3.366-10.958-1.188-13.318 1.93-2.112 4.974-2.559 7.548-1.093 1.807 1.018 5.049 3.304 9.528 6.46 5.89 4.174 13.983 9.864 22.372 15.131 4.281 2.684 11.062 5.988 18.24 9.492 17.892 8.746 38.16 18.635 42.07 28.623 5.123 13.094 33.583 87.534 33.88 88.279.421 1.094-.124 2.286-1.213 2.709-.198.124-.47.149-.717.149Z"/><path fill="#9C7C9C" d="M122.758 325.002a2.116 2.116 0 0 1-2.004-1.491c-3.539-11.976-14.23-44.375-20.863-50.463-4.058-3.702-17.868-12.274-30.068-19.852-20.367-12.647-26.406-16.647-27.322-18.784-1.46-3.429-25.836-65.123-30.81-78.763-.694-1.914-1.411-3.802-2.104-5.64-4.826-12.846-8.315-22.114-2.698-25.319 5.098-2.907 10.568 2.658 22.52 22.933l14.998 25.07a2.107 2.107 0 0 1-.718 2.882 2.088 2.088 0 0 1-2.87-.72L25.82 149.76c-11.31-19.206-15.393-22.287-16.853-21.442-2.5 1.441 1.41 11.826 4.554 20.2.693 1.838 1.41 3.752 2.103 5.665 4.95 13.616 29.277 75.16 30.737 78.564 1.262 1.69 14.8 10.113 25.688 16.846 12.943 8.05 26.357 16.349 30.687 20.325 8.86 8.1 21.531 50.562 22.051 52.351.321 1.118-.297 2.286-1.411 2.609a1.455 1.455 0 0 1-.619.124Z"/><path fill="#9C7C9C" d="M51.827 180.151c-1.064 0-1.98-.82-2.079-1.914-.05-.571-4.85-56.153-6.112-65.868-.693-5.317-3.762-6.882-5.47-6.957-.272-.024-1.584-.024-1.806.945-.718 3.081-1.856 31.281-2.45 49.494-.025 1.168-.99 2.112-2.153 2.037a2.117 2.117 0 0 1-2.03-2.161c.149-4.672 1.51-45.817 2.55-50.315.618-2.658 3.068-4.372 6.087-4.174 4.01.199 8.464 3.553 9.404 10.61 1.287 9.789 5.94 63.756 6.138 66.042A2.087 2.087 0 0 1 52 180.151h-.173ZM61.504 186.558s-6.509-49.271-7.796-59.135c-.668-5.143-2.475-7.454-3.811-7.876-.841-.273-1.51.224-1.906.671a2.051 2.051 0 0 1-2.945.149c-.866-.77-.915-2.112-.148-2.957 1.683-1.888 4.01-2.584 6.261-1.888 3.465 1.068 5.915 5.218 6.707 11.33 1.287 9.864 7.795 59.134 7.795 59.134l-4.157.572Z"/><path fill="#9C7C9C" d="M73.956 194.987s-8.068-39.63-9.627-47.158c-.742-3.628-2.277-5.193-3.365-5.417-.743-.149-1.238.299-1.535.721a2.093 2.093 0 0 1-2.92.497 2.112 2.112 0 0 1-.495-2.932c1.386-1.963 3.588-2.882 5.79-2.41 1.51.323 5.198 1.789 6.609 8.671 1.559 7.529 9.626 47.184 9.626 47.184l-4.083.844ZM196.902 323.167a1.99 1.99 0 0 1-.743-.149c-1.089-.423-1.608-1.615-1.212-2.709.297-.745 28.756-75.185 33.879-88.279 3.91-9.988 24.179-19.902 42.071-28.623 7.177-3.504 13.958-6.808 18.239-9.492 8.39-5.267 16.458-10.957 22.372-15.131 4.48-3.156 7.697-5.442 9.528-6.46 2.574-1.466 5.618-1.019 7.548 1.093 2.178 2.36 2.995 7.106-1.188 13.318-5.988 8.895-44.397 47.481-46.03 49.121a2.07 2.07 0 0 1-2.945 0 2.09 2.09 0 0 1 0-2.957c.396-.397 39.745-39.928 45.511-48.5 2.821-4.199 2.598-7.007 1.559-8.125-.619-.671-1.559-.77-2.425-.298-1.634.92-4.95 3.28-9.157 6.237-5.94 4.199-14.081 9.938-22.545 15.255-4.48 2.808-11.359 6.162-18.635 9.715-16.359 7.976-36.701 17.915-40.017 26.387-5.123 13.07-33.583 87.51-33.88 88.255-.297.845-1.089 1.342-1.93 1.342Z"/><path fill="#9C7C9C" d="M245.259 325a1.67 1.67 0 0 1-.594-.099c-1.114-.323-1.732-1.491-1.411-2.609.545-1.814 13.191-44.276 22.051-52.352 4.33-3.95 17.719-12.274 30.687-20.324 10.864-6.758 24.401-15.156 25.787-17.045 1.361-3.205 25.663-64.7 30.638-78.39.693-1.913 1.41-3.827 2.103-5.665 3.143-8.349 7.053-18.759 4.529-20.2-1.435-.82-5.543 2.211-16.853 21.417l-14.997 25.095a2.09 2.09 0 0 1-2.871.721 2.108 2.108 0 0 1-.718-2.883l14.997-25.094c11.954-20.275 17.423-25.841 22.521-22.909 5.593 3.205 2.103 12.473-2.698 25.319-.693 1.838-1.41 3.727-2.103 5.64-4.999 13.715-29.376 75.384-30.811 78.763-.916 2.137-6.979 6.137-27.322 18.784-12.2 7.578-26.034 16.15-30.068 19.852-6.633 6.063-17.324 38.488-20.863 50.464a2.086 2.086 0 0 1-2.004 1.515Z"/><path fill="#9C7C9C" d="M316.211 180.147h-.173a2.104 2.104 0 0 1-1.906-2.261c.198-2.286 4.851-56.252 6.138-66.042.915-7.056 5.395-10.41 9.404-10.609 3.019-.174 5.469 1.516 6.088 4.174 1.039 4.497 2.4 45.643 2.549 50.314a2.072 2.072 0 0 1-2.03 2.162c-1.163-.05-2.128-.87-2.153-2.038-.594-18.187-1.732-46.388-2.45-49.494-.222-.969-1.559-.969-1.806-.944-1.708.075-4.752 1.64-5.469 6.957-1.263 9.715-6.064 65.297-6.113 65.868-.099 1.069-1.015 1.913-2.079 1.913Z"/><path fill="#9C7C9C" d="m306.509 186.559-4.133-.547s6.509-49.271 7.796-59.135c.792-6.137 3.242-10.261 6.706-11.33 2.228-.695 4.579 0 6.262 1.889a2.114 2.114 0 0 1-.149 2.956 2.094 2.094 0 0 1-2.945-.149c-.396-.447-1.064-.944-1.905-.671-1.337.423-3.143 2.734-3.812 7.877-1.311 9.839-7.82 59.11-7.82 59.11Z"/><path fill="#9C7C9C" d="m294.062 194.986-4.083-.845s8.067-39.63 9.626-47.184c1.411-6.882 5.098-8.348 6.608-8.671 2.203-.472 4.43.472 5.816 2.41a2.113 2.113 0 0 1-.495 2.932 2.093 2.093 0 0 1-2.92-.497c-.297-.422-.792-.894-1.535-.72-1.089.223-2.623 1.789-3.366 5.416-1.583 7.529-9.651 47.159-9.651 47.159ZM183.908 107.557h-.074l-63.132-2.137a2.06 2.06 0 0 1-1.88-1.341c-3.836-9.939-2.599-35.605-2.549-36.698.024-.498.222-.97.544-1.317 13.735-14.883 33.236-16.25 34.053-16.325.792-.024 1.51.348 1.905.994l32.89 53.619c.396.646.421 1.491.025 2.162a2.018 2.018 0 0 1-1.782 1.043Zm-61.622-6.311 57.786 1.963-30.142-49.171c-4.282.547-18.858 3.155-29.5 14.287-.148 4.174-.817 23.952 1.856 32.921Z"/><path fill="#9C7C9C" d="M182.621 183.51c-.173 0-.321-.025-.495-.05-19.649-4.845-29.771-21.392-30.192-22.088a2.095 2.095 0 0 1-.049-2.087l30.192-54.836a2.092 2.092 0 0 1 1.831-1.094h.025c.767 0 1.46.448 1.831 1.119l28.757 54.836a2.093 2.093 0 0 1-.074 2.087c-7.721 12.423-30.093 21.567-31.034 21.964a2.14 2.14 0 0 1-.792.149Zm-26.455-23.331c2.4 3.454 11.409 15.082 26.307 19.008 3.514-1.491 20.912-9.293 27.767-19.057l-26.381-50.29-27.693 50.339Z"/><path fill="#9C7C9C" d="M183.91 107.557a2.086 2.086 0 0 1-1.807-1.043c-.396-.671-.371-1.491.025-2.162l32.89-53.619c.396-.646 1.138-1.018 1.905-.994.817.05 20.318 1.417 34.053 16.325.322.372.52.82.545 1.317.049 1.093 1.311 26.76-2.549 36.698a2.062 2.062 0 0 1-1.881 1.341l-63.132 2.137h-.049Zm33.978-53.494-30.142 49.171 57.786-1.963c2.672-8.994 2.029-28.772 1.856-32.897-10.691-11.18-25.243-13.79-29.5-14.311ZM105.406 126.163c-4.825 0-8.736-3.951-8.736-8.771s3.935-8.771 8.736-8.771c4.826 0 8.761 3.951 8.761 8.771s-3.935 8.771-8.761 8.771Zm0-13.368c-2.524 0-4.578 2.063-4.578 4.597 0 2.534 2.054 4.597 4.578 4.597 2.525 0 4.579-2.063 4.579-4.597 0-2.534-2.054-4.597-4.579-4.597ZM134.31 175.508a8.802 8.802 0 0 1-7.672-4.522c-2.351-4.249-.816-9.591 3.415-11.951a8.657 8.657 0 0 1 6.658-.77 8.737 8.737 0 0 1 5.246 4.174c2.351 4.224.817 9.591-3.415 11.951a8.439 8.439 0 0 1-4.232 1.118Zm0-13.367c-.742 0-1.51.174-2.203.571-2.202 1.218-2.994 4.025-1.781 6.237 1.212 2.211 4.009 3.006 6.211 1.789 2.203-1.218 2.995-4.026 1.782-6.237a4.57 4.57 0 0 0-4.009-2.36ZM154.603 40.967c-4.826 0-8.76-3.95-8.76-8.77 0-4.846 3.934-8.771 8.76-8.771s8.736 3.95 8.736 8.77c.025 4.82-3.91 8.771-8.736 8.771Zm0-13.367c-2.524 0-4.578 2.062-4.578 4.597 0 2.534 2.054 4.596 4.578 4.596 2.525 0 4.579-2.062 4.579-4.596 0-2.535-2.054-4.597-4.579-4.597ZM213.205 40.967c-4.825 0-8.736-3.95-8.736-8.77 0-4.846 3.935-8.771 8.736-8.771 4.826 0 8.736 3.95 8.736 8.77.025 4.82-3.91 8.771-8.736 8.771Zm0-13.367c-2.524 0-4.578 2.062-4.578 4.597 0 2.534 2.054 4.596 4.578 4.596 2.525 0 4.579-2.062 4.579-4.596 0-2.535-2.054-4.597-4.579-4.597ZM232.414 177.346a8.8 8.8 0 0 1-7.672-4.522 8.744 8.744 0 0 1-.767-6.683 8.761 8.761 0 0 1 4.157-5.268c4.207-2.335 9.553-.82 11.904 3.429a8.803 8.803 0 0 1-3.415 11.951 8.653 8.653 0 0 1-4.207 1.093Zm-.025-13.367c-.743 0-1.51.174-2.203.571a4.594 4.594 0 0 0-2.178 2.758 4.505 4.505 0 0 0 .396 3.479c1.213 2.211 4.01 3.006 6.212 1.789 2.203-1.218 2.995-4.025 1.782-6.237a4.622 4.622 0 0 0-4.009-2.36ZM262.405 126.163c-4.826 0-8.761-3.951-8.761-8.771s3.935-8.771 8.761-8.771c4.826 0 8.736 3.951 8.736 8.771s-3.91 8.771-8.736 8.771Zm0-13.368c-2.525 0-4.579 2.063-4.579 4.597 0 2.534 2.054 4.597 4.579 4.597 2.524 0 4.578-2.063 4.578-4.597 0-2.534-2.054-4.597-4.578-4.597ZM93.873 55.919c-.371 0-.743-.1-1.064-.298L64.299 38.5a2.107 2.107 0 0 1-.717-2.882 2.09 2.09 0 0 1 2.87-.72l28.51 17.12a2.107 2.107 0 0 1 .718 2.881 2.07 2.07 0 0 1-1.807 1.019ZM181.555 244.952h-.074a2.118 2.118 0 0 1-2.03-2.162l1.089-33.319c.05-1.168 1.039-2.013 2.153-2.037a2.116 2.116 0 0 1 2.029 2.161l-1.088 33.319a2.07 2.07 0 0 1-2.079 2.038ZM273.935 55.919c-.717 0-1.41-.373-1.782-1.019a2.108 2.108 0 0 1 .718-2.882l28.51-17.12a2.089 2.089 0 0 1 2.87.721 2.108 2.108 0 0 1-.717 2.883l-28.51 17.119c-.346.223-.717.298-1.089.298Z"/><path fill="#63436D" d="M183.908 58.875c-1.015 0-3.044-1.69-6.039-5.044-4.355-4.87-11.483-14.908-10.171-27.232 1.98-18.386 14.824-24.2 15.368-24.424.421-.198.891-.223 1.361-.1.099.026.223.075.322.1.545.249 13.389 6.038 15.368 24.424 1.956 18.337-14.205 31.282-14.898 31.829-.396.273-.841.447-1.311.447Zm0-52.426c-2.624 1.516-10.592 7.13-12.052 20.598-1.411 13.168 8.438 23.604 12.052 26.958 3.613-3.33 13.462-13.765 12.052-26.958-1.46-13.467-9.404-19.082-12.052-20.598Z"/><path fill="#63436D" d="M183.906 58.874a2.079 2.079 0 0 1-2.078-2.087V4.112a2.08 2.08 0 1 1 4.157 0v52.675c.025 1.143-.915 2.087-2.079 2.087ZM109.636 160.82c-9.256 0-14.948-4.273-15.27-4.522a2.109 2.109 0 0 1-.816-1.49c-.074-.895-1.064-14.784 13.834-25.319 15.022-10.609 34.152-2.708 34.944-2.36a2.106 2.106 0 0 1 1.262 2.261c-.149.869-3.564 21.368-20.491 28.523-5.024 2.137-9.553 2.907-13.463 2.907Zm-11.953-7.329c2.598 1.59 11.334 5.839 23.782.571 12.151-5.143 16.458-18.858 17.621-23.654-4.678-1.54-18.536-5.118-29.302 2.51-10.963 7.752-12.052 17.541-12.101 20.573Z"/><path fill="#63436D" d="M95.628 156.722a2.13 2.13 0 0 1-1.831-1.068 2.098 2.098 0 0 1 .817-2.858l45.882-25.567c1.015-.571 2.277-.198 2.846.82a2.098 2.098 0 0 1-.817 2.858l-45.882 25.567a2.443 2.443 0 0 1-1.015.248ZM257.282 160.819c-3.91 0-8.414-.745-13.463-2.882-16.927-7.181-20.343-27.654-20.491-28.524a2.106 2.106 0 0 1 1.262-2.261c.817-.348 19.947-8.249 34.944 2.36 15.046 10.66 13.883 24.748 13.834 25.344a2.041 2.041 0 0 1-.866 1.515c-.718.497-6.336 4.423-15.22 4.448Zm-29.45-30.412c1.163 4.795 5.469 18.51 17.62 23.654 12.374 5.242 21.209.969 23.783-.597-.025-3.056-1.064-12.746-12.102-20.548-10.765-7.627-24.624-4.05-29.301-2.509Z"/><path fill="#63436D" d="M271.29 156.722a1.89 1.89 0 0 1-1.014-.273l-45.882-25.567a2.097 2.097 0 0 1-.817-2.857 2.101 2.101 0 0 1 2.846-.82l45.882 25.567a2.097 2.097 0 0 1 .817 2.857c-.396.696-1.089 1.093-1.832 1.093ZM152.477 126.803a1.96 1.96 0 0 1-.842-.174c-56.573-24.995-48.357-66.663-48.258-67.085a2.24 2.24 0 0 1 .743-1.218c34.795-27.43 80.603 7.131 81.048 7.48.52.397.817 1.018.817 1.664v37.965c0 .721-.371 1.417-.99 1.789l-31.429 19.256a1.923 1.923 0 0 1-1.089.323Zm-45.14-65.644c-.866 5.516-3.861 39.133 44.991 61.197l29.5-18.064V68.563c-6.113-4.348-44.794-30.04-74.491-7.404Z"/><path fill="#63436D" d="M182.395 198.51a1.94 1.94 0 0 1-.817-.174c-40.809-17.244-31.256-73.446-31.157-74.018a2.07 2.07 0 0 1 .965-1.416l31.43-19.256a2.134 2.134 0 0 1 2.177 0l31.43 19.256c.569.348.94.944.99 1.59 5.667 61.843-34.053 73.819-34.449 73.918-.173.075-.371.1-.569.1Zm-27.99-72.527c-1.014 7.081-6.088 53.097 28.114 68.203 5.122-1.789 35.364-14.609 30.86-68.228l-29.45-18.039-29.524 18.064Z"/><path fill="#63436D" d="M215.339 126.804c-.372 0-.768-.1-1.089-.298l-31.43-19.256c-.619-.373-.99-1.069-.99-1.789V67.495c0-.646.297-1.267.817-1.664.445-.348 46.278-34.91 81.049-7.48.371.299.643.721.742 1.218.099.423 8.315 42.09-48.258 67.086-.272.074-.544.149-.841.149Zm-29.327-22.536 29.5 18.063c48.877-22.063 45.857-55.656 44.991-61.196-29.697-22.636-68.403 3.056-74.491 7.404v35.729Z"/><path fill="#63436D" d="M183.905 107.547h-.074l-31.158-1.068a2.069 2.069 0 0 1-1.658-.944l-17.843-27.008a2.097 2.097 0 0 1-.074-2.212 2.06 2.06 0 0 1 1.93-1.043l32.989 1.963c.668.05 1.287.422 1.658.993l16.012 26.114c.396.646.421 1.491.025 2.162a2.089 2.089 0 0 1-1.807 1.043Zm-30.019-5.217 26.208.894-13.413-21.865-27.743-1.64 14.948 22.611Z"/><path fill="#63436D" d="M183.236 164.199h-.025a2.121 2.121 0 0 1-1.856-1.193l-14.304-29.915a2.07 2.07 0 0 1 .074-1.938l14.973-26.735c.371-.671.99-1.068 1.856-1.068.767.024 1.46.447 1.806 1.143l14.206 27.877a2.165 2.165 0 0 1 0 1.913l-14.874 28.773c-.371.695-1.089 1.143-1.856 1.143Zm-11.953-31.953 12.027 25.145 12.448-24.101-11.928-23.431-12.547 22.387Z"/><path fill="#63436D" d="M183.903 107.547a2.086 2.086 0 0 1-1.807-1.043c-.396-.671-.371-1.491.025-2.162l16.012-26.114a2.107 2.107 0 0 1 1.658-.993l32.989-1.963a2.036 2.036 0 0 1 1.93 1.043c.396.696.371 1.54-.074 2.212l-17.844 27.008a2.068 2.068 0 0 1-1.658.944l-31.157 1.068h-.074Zm17.224-26.188-13.413 21.865 26.208-.894 14.947-22.61-27.742 1.64ZM134.91 38.832a2.09 2.09 0 0 1-1.782-.994l-12.126-19.53c-.619-.993-.322-2.285.668-2.882.965-.596 2.277-.323 2.871.671l12.126 19.53c.619.993.322 2.285-.668 2.882a2.142 2.142 0 0 1-1.089.323ZM98.952 99.533h-.124l-21.036-1.342a2.083 2.083 0 0 1-1.955-2.211c.074-1.143 1.064-2.112 2.227-1.963L99.1 95.36a2.083 2.083 0 0 1 1.955 2.211c-.099 1.093-1.015 1.963-2.103 1.963ZM136.715 204.06c-.346 0-.693-.074-1.015-.273a2.12 2.12 0 0 1-.816-2.858l11.111-20.125a2.102 2.102 0 0 1 2.846-.82 2.097 2.097 0 0 1 .817 2.857l-11.112 20.126a2.071 2.071 0 0 1-1.831 1.093ZM227.191 205.15a2.067 2.067 0 0 1-1.881-1.193l-9.058-19.131a2.092 2.092 0 0 1 .99-2.783c1.04-.497 2.302-.05 2.772.994l9.058 19.132a2.09 2.09 0 0 1-.99 2.782c-.272.149-.594.199-.891.199ZM232.932 38.832c-.371 0-.767-.1-1.113-.323-.99-.621-1.287-1.913-.669-2.883l12.127-19.529a2.084 2.084 0 0 1 2.87-.67c.99.62 1.287 1.912.669 2.881l-12.127 19.53a2.05 2.05 0 0 1-1.757.994ZM268.889 99.533a2.088 2.088 0 0 1-2.079-1.963c-.074-1.142.792-2.161 1.955-2.21l21.036-1.343c1.188-.149 2.153.796 2.227 1.963.074 1.143-.792 2.162-1.955 2.212l-21.036 1.341h-.148Z"/></g><defs><filter id="a" width="368" height="331.002" x="0" y="0" color-interpolation-filters="sRGB" filterUnits="userSpaceOnUse"><feFlood flood-opacity="0" result="BackgroundImageFix"/><feColorMatrix in="SourceAlpha" result="hardAlpha" values="0 0 0 0 0 0 0 0 0 0 0 0 0 0 0 0 0 0 127 0"/><feOffset dy="2"/><feGaussianBlur stdDeviation="2"/><feComposite in2="hardAlpha" operator="out"/><feColorMatrix values="0 0 0 0 0.196078 0 0 0 0 0.196078 0 0 0 0 0.196078 0 0 0 0.4 0"/><feBlend in2="BackgroundImageFix" result="effect1_dropShadow_892_1419"/><feBlend in="SourceGraphic" in2="effect1_dropShadow_892_1419" result="shape"/></filter></defs></svg>