<svg xmlns="http://www.w3.org/2000/svg" width="465" height="323" fill="none"><g filter="url(#a)"><g filter="url(#b)"><mask id="c" width="465" height="320" x="0" y="2" maskUnits="userSpaceOnUse" style="mask-type:luminance"><path fill="#fff" d="M465 148 70.268 2.41.304 175.786l394.732 145.591L465 148Z"/></mask><g mask="url(#c)"><path fill="#fff" d="M217.248 172.684c-.7 1.733 3.809 7.516 6.44 10.762-.026.065-.026.065.03.16.11.411 2.414 9.352 12.719 21.905-.118 2.381.527 5.198 2.073 8.341 2.89 5.847 7.795 11.114 14.297 15.201l27.034 16.885c.214.153.435.309.656.464l.409.374c.411.368.666.907.568 1.385-.098.477-.445.868-.985 1.034-.641.203-1.397.221-2.049-.02l-14.983-3.54c-1.978-.432-4.042-1.119-5.946-1.753-.76-.206-1.494-.477-2.172-.653-3.749-1.16-7.713-2.257-10.724-2.922-5.671-1.281-6.991-1.038-7.384-.298-.206.511-.166 1.114.165 1.681 1.845 3.105 12.39 6.703 13.638 7.089 24.492 9.472 55.426 18.53 55.781 18.587.241.088 18.726 4.698 36.975 20.106 14.981 12.589 21.433 22.619 21.489 22.714.113.19.247.308.494.399.246.091.429.09.645.021.434-.137.588-.519.363-.899-.056-.094-6.698-10.338-21.874-23.147-18.602-15.687-37.601-20.411-37.765-20.472-.247-.091-31.207-9.084-55.591-18.59-4.293-1.435-11.454-4.373-12.564-6.254-.114-.185-.145-.344-.119-.409 1.214-.214 7.533 1.083 16.118 3.736.761.206 1.413.447 2.173.653 1.982.657 4.076 1.287 6.136 1.75l14.976 3.537c1.09.328 2.225.307 3.192.002 1.069-.342 1.734-1.055 1.931-2.01.198-.959-.252-1.935-1.072-2.677l-.416-.376c-.27-.248-.549-.494-.928-.708l-27.027-16.882c-6.204-3.908-10.947-8.893-13.668-14.455-1.012-2.142-1.697-4.158-1.835-5.903.824.965 1.737 1.964 2.644 2.96 2.235 2.371 4.841 4.507 7.74 6.387l38.268 24.56.247.091c.329.121.73.047.997-.146.213-.292.12-.766-.259-.98l-38.274-24.562a38.264 38.264 0 0 1-7.381-6.106c-9.617-10.313-13.99-18.99-15.719-23.302l19.986 20.169c6.465 6.503 14.131 11.904 22.825 16.143l26.222 12.609c.385.216.892.112 1.131-.245.211-.287.012-.731-.452-.971l-26.219-12.614c-8.474-4.083-16.001-9.358-22.251-15.709l-20.759-21.046c-2.255-2.304-8.481-10.335-7.99-11.551.232-.576.762-.969 1.544-1.051.704-.106 1.464.1 2.122.56l39.098 29.944c.935.71 1.996 1.324 3.142 1.746 16.018 6.056 30.584 10.395 43.245 12.931 12.066 2.39 18.442 2.391 20.626 2.312 2.406-.14 3.916-1.791 3.498-3.783-.472-2.308-1.839-4.506-3.952-6.244-5.344-4.396-17.736-15.51-17.902-23.223-.037-3.62.977-4.278 1.376-4.348 1.24-.279 3.79 1.763 5.168 3.23 0 0 .083.03.057.095l36.609 32.849c10.009 7.954 16.951 19.563 22.55 28.914 2.007 3.387 3.907 6.587 5.705 9.088l24.148 33.548c.112.19.277.25.441.311.241.089.514.115.755-.013.427-.139.525-.616.28-.929l-24.364-33.48c-1.722-2.472-3.614-5.675-5.647-8.998-5.657-9.441-12.711-21.24-22.933-29.351l-36.536-32.817c-.521-.563-4.213-4.424-7.065-3.861-1.749.388-2.555 2.151-2.522 5.546.173 7.932 11.607 18.625 18.497 24.327 1.753 1.457 2.951 3.37 3.363 5.359.237 1.269-.742 2.306-2.17 2.367-19.54 1.033-58.604-13.448-63.009-15.073a10.391 10.391 0 0 1-2.618-1.405l-39.104-29.946c-.985-.803-2.341-1.154-3.637-.97-1.295.183-2.334.902-2.721 1.86ZM58.087 36.526c.195.22 21.206 20.624 30.408 34.756 10.118 15.577 31.736 31.936 52.628 39.858 18.448 7.026 32.677 20.073 36.642 23.961 1.266 1.277 2.827 2.292 4.453 2.892l.247.091c2.285.842 3.551.499 4.296.038 1.683-1.143 1.793-3.972.297-8.86-1.432-4.579-5.655-9.446-12.172-13.983-4.457-3.116-8.544-5.063-9.308-5.493l-9.253-7.971 46.998 14.314 4.386 3.312c.231 2.22 1.647 14.729 9.41 22.448 2.004 1.988 3.758 3.229 5.226 3.77.816.301 1.547.348 2.246.235 2.345-.459 2.505-3.413 2.553-3.766.026-.064-.032-.154-.032-.154l-2.954-11.023c7.818 5.24 17.383 11.266 21.63 12.833.488.179.899.331 1.274.321 1.761.284 2.893.04 3.476-.704 1.025-1.385-.856-3.699-1.13-4.171 0 0-.083-.03-.059-.09l-29.076-28.525-6.978-13.608c-1.51-2.765-3.769-5.292-6.509-7.33l-2.22-4.499c-3.167-6.314-7.979-12.282-14.092-17.116l-9.427-7.522c8.991.007 15.221 3.85 15.303 3.88.574.435 15.572 10.89 21.311 11.318.73.047 2.919.192 3.492-.995.625-1.315-1.299-3.052-1.626-3.395l-23.383-19.875c-2.225-1.928-5.112-3.135-8.117-3.581l-1.603-.226c-34.164-4.064-56.953-13.576-70.057-20.833-14.189-7.812-20.309-14.702-20.365-14.797-.335-.34-.849-.456-1.224-.229-.369.23-.449.645-.116.99.247.308 6.455 7.23 20.865 15.198 13.263 7.316 36.376 16.942 70.818 21.04l1.648.094c2.574.361 5.056 1.419 7.004 3.096l23.299 19.85c.688.619 1.348 1.524 1.218 1.847-.05.124-.529.392-1.988.294-4.274-.327-16.061-8.057-20.221-10.99-.386-.216-7.817-4.793-18.393-4.135-.299.038-.542.17-.644.424-.104.258.064.543.261.758l10.852 8.641c5.894 4.673 10.594 10.451 13.653 16.583l1.175 2.42-20.049-12.102c-.379-.214-.951-.202-1.161.085-.213.293-.121.766.265.983l20.511 12.345c3.551 2.12 6.279 4.89 8.039 8.186l4.988 9.713-3.963-3.892c-1.816-1.771-4.052-3.183-6.584-4.117L182.59 90.39c-.488-.18-.919-.047-1.075.34-.155.382.07.762.557.942l23.666 8.727c2.202.813 4.224 2.072 5.852 3.625l36.339 35.842c.61.813 1.395 2.129 1.022 2.585-.184.223-.884.336-1.859.193-2.738-.422-13.668-7.249-23.869-14.024l-.083-.03c-3.555-2.344-6.921-4.686-9.933-6.756l-8.981-6.77c-.059-.09-.223-.15-.306-.181l-61.042-18.54c-.487-.18-.945.016-1.019.434-.128.318.149.785.667.907l10.346 3.154 11.531 9.987c.082.03.138.125.22.155.165.061 17.437 8.126 20.658 18.505 1.692 5.554.889 7.095.245 7.519-.664.491-1.918.103-2.817-.228a9.541 9.541 0 0 1-3.689-2.462c-4.045-3.922-18.527-17.28-37.297-24.425-20.488-7.772-41.746-23.851-51.702-39.145-9.415-14.29-30.464-34.851-30.678-35.004a1.024 1.024 0 0 0-1.25-.165c-.37.23-.367.675-.006.951Zm151.401 84.308 2.659 2.007c1.015.745 4.899 3.427 9.768 6.695l3.389 12.502c-.068.636-.36 2.297-1.383 2.508-.515.106-2.056-.022-5.547-3.444-6.358-6.316-8.297-16.377-8.886-20.268Zm106.346 31.272c.619-1.535-.497-3.419-2.459-4.142-1.955-.721-4.105-.042-4.725 1.492-.621 1.54.495 3.423 2.45 4.145 1.963.723 4.113.044 4.734-1.495Zm-1.633-.603c-.337.835-1.52 1.209-2.583.816-1.057-.389-1.672-1.426-1.335-2.26.335-.83 1.518-1.204 2.575-.814 1.064.392 1.678 1.429 1.343 2.258ZM244.757 99.19c.593-1.47-.441-3.323-2.403-4.047-1.873-.69-3.997-.076-4.617 1.459-.621 1.54.439 3.328 2.394 4.049 1.962.724 4.004.079 4.626-1.46Zm-1.633-.602c-.311.77-1.412 1.174-2.476.782-1.057-.39-1.614-1.332-1.278-2.166.335-.83 1.41-1.17 2.467-.78 1.063.393 1.595 1.4 1.287 2.164Zm-77.905 44.609c-.57 1.411.378 3.01 2.169 3.67 1.797.663 3.622.087 4.192-1.324.567-1.405-.463-3.035-2.178-3.667-1.709-.63-3.642-.02-4.183 1.321Zm1.626.6c.257-.636 1.224-.941 2.04-.64.817.301 1.318 1.148 1.062 1.784-.259.641-1.226.946-2.042.645-.892-.329-1.344-1.084-1.06-1.789Zm42.756 59.69c-.594 1.47.466 3.259 2.34 3.95 1.879.693 3.921.048 4.514-1.422.596-1.475-.464-3.264-2.344-3.957-1.873-.691-3.915-.046-4.51 1.429Zm1.633.602c.31-.769 1.385-1.109 2.36-.749.981.361 1.539 1.303 1.228 2.073-.308.765-1.383 1.104-2.364.743-.975-.36-1.533-1.302-1.224-2.067Z"/><path stroke="#fff" stroke-width="3" d="M268.692 88.835c.413-.044.821-.111 1.222-.203-.074.277-.133.56-.177.846l-.001.006a7.9 7.9 0 0 0-.075 1.52c.024.516.1 1.028.22 1.532l.001.007c.071.29.156.58.258.866a11.552 11.552 0 0 0-2.898-.509 10.852 10.852 0 0 0-2.865.252c.074-.277.134-.56.177-.85.076-.503.1-1.01.076-1.522a8.417 8.417 0 0 0-.479-2.405c.412.127.828.232 1.248.313l.005.001a11.112 11.112 0 0 0 3.282.147h.006ZM121.964 146.693l1.316-.792.002.002c.34.411.64.838.902 1.277.223-.374.477-.731.758-1.07l.004-.005a9.132 9.132 0 0 1 1.187-1.18 9.916 9.916 0 0 1 1.421-.974l.006-.004c.408-.23.833-.433 1.277-.611-.511-.24-.999-.511-1.465-.809l-.005-.003v-.001a12.041 12.041 0 0 1-1.437-1.084 11.328 11.328 0 0 1-1.223-1.26l-.003-.004a10.374 10.374 0 0 1-.9-1.277l-3.185 4.658m1.345 3.137a9.473 9.473 0 0 0-1.063-1.097 10.234 10.234 0 0 0-1.249-.942m2.312 2.039c.322.387.603.795.848 1.217l-.848-1.217Zm-2.312-2.039.97-1.096-.003-.002m-.967 1.098.965-1.1.002.002m-.967 1.098a10.878 10.878 0 0 0-1.4-.764 11.36 11.36 0 0 0-1.338-.508l.151-.028a11.68 11.68 0 0 0 1.755-.484l.004-.002.08-.029.005-.002.242-.094c.505.238.997.508 1.468.813m7.834 1.542a9.137 9.137 0 0 1 1.356-.622l-1.356.622Zm0 0a8.376 8.376 0 0 0-1.195.819 7.662 7.662 0 0 0-.997.992 7.1 7.1 0 0 0-.773 1.137m2.965-2.948-3.412 3.951m.447-1.003a6.79 6.79 0 0 0-.447 1.003m.447-1.003-1.054-.422m1.054.422-1.055-.424.001.002m.607 1.425a10.305 10.305 0 0 0-.078-.229l-.002-.004a9.427 9.427 0 0 0-.527-1.192m.607 1.425-.607-1.425m4.651-4.384-.101.163.001.001h.001l.102-.165.081-.03.002-.001a11.508 11.508 0 0 1 1.752-.484l-1.838.516ZM170.072 191.787c.278-.174.543-.363.793-.566.099.349.22.694.364 1.036l.002.005c.202.477.445.946.735 1.404.288.457.615.892.975 1.306l.004.004c.258.296.534.58.828.853a9.939 9.939 0 0 0-2.579.628 8.587 8.587 0 0 0-1.381.697 7.954 7.954 0 0 0-.799.568 9.508 9.508 0 0 0-1.101-2.444 10.39 10.39 0 0 0-.977-1.308 10.8 10.8 0 0 0-.83-.855 10.57 10.57 0 0 0 1.047-.166l.006-.002a9.546 9.546 0 0 0 1.527-.461 8.69 8.69 0 0 0 1.38-.695l.006-.004Z"/></g></g><path fill="#fff" d="M217.248 172.684c-.7 1.733 3.809 7.516 6.44 10.762-.026.065-.026.065.03.16.11.411 2.414 9.352 12.719 21.905-.118 2.381.527 5.198 2.073 8.341 2.89 5.847 7.795 11.114 14.297 15.201l27.034 16.885c.214.153.435.309.656.464l.409.374c.411.368.666.907.568 1.385-.098.477-.445.868-.985 1.034-.641.203-1.397.221-2.049-.02l-14.983-3.54c-1.978-.432-4.042-1.119-5.946-1.753-.76-.206-1.494-.477-2.172-.653-3.749-1.16-7.713-2.257-10.724-2.922-5.671-1.281-6.991-1.038-7.384-.298-.206.511-.166 1.114.165 1.681 1.845 3.105 12.39 6.703 13.638 7.089 24.492 9.472 55.426 18.53 55.781 18.587.241.088 18.726 4.698 36.975 20.106 14.981 12.589 21.433 22.619 21.489 22.714.113.19.247.308.494.399.246.091.429.09.645.021.434-.137.588-.519.363-.899-.056-.094-6.698-10.338-21.874-23.147-18.602-15.687-37.601-20.411-37.765-20.472-.247-.091-31.207-9.084-55.591-18.59-4.293-1.435-11.454-4.373-12.564-6.254-.114-.185-.145-.344-.119-.409 1.214-.214 7.533 1.083 16.118 3.736.761.206 1.413.447 2.173.653 1.982.657 4.076 1.287 6.136 1.75l14.976 3.537c1.09.328 2.225.307 3.192.002 1.069-.342 1.734-1.055 1.931-2.01.198-.959-.252-1.935-1.072-2.677l-.416-.376c-.27-.248-.549-.494-.928-.708l-27.027-16.882c-6.204-3.908-10.947-8.893-13.668-14.455-1.012-2.142-1.697-4.158-1.835-5.903.824.965 1.737 1.964 2.644 2.96 2.235 2.371 4.841 4.507 7.74 6.387l38.268 24.56.247.091c.329.121.73.047.997-.146.213-.292.12-.766-.259-.98l-38.274-24.562a38.264 38.264 0 0 1-7.381-6.106c-9.617-10.313-13.99-18.99-15.719-23.302l19.986 20.169c6.465 6.503 14.131 11.904 22.825 16.143l26.222 12.609c.385.216.892.112 1.131-.245.211-.287.012-.731-.452-.971l-26.219-12.614c-8.474-4.083-16.001-9.358-22.251-15.709l-20.759-21.046c-2.255-2.304-8.481-10.335-7.99-11.551.232-.576.762-.969 1.544-1.051.704-.106 1.464.1 2.122.56l39.098 29.944c.935.71 1.996 1.324 3.142 1.746 16.018 6.056 30.584 10.395 43.245 12.931 12.066 2.39 18.442 2.391 20.626 2.312 2.406-.14 3.916-1.791 3.498-3.783-.472-2.308-1.839-4.506-3.952-6.244-5.344-4.396-17.736-15.51-17.902-23.223-.037-3.62.977-4.278 1.376-4.348 1.24-.279 3.79 1.763 5.168 3.23 0 0 .083.03.057.095l36.609 32.849c10.009 7.954 16.951 19.563 22.55 28.914 2.007 3.387 3.907 6.587 5.705 9.088l24.148 33.548c.112.19.277.25.441.311.241.089.514.115.755-.013.427-.139.525-.616.28-.929l-24.364-33.48c-1.722-2.472-3.614-5.675-5.647-8.998-5.657-9.441-12.711-21.24-22.933-29.351l-36.536-32.817c-.521-.563-4.213-4.424-7.065-3.861-1.749.388-2.555 2.151-2.522 5.546.173 7.932 11.607 18.625 18.497 24.327 1.753 1.457 2.951 3.37 3.363 5.359.237 1.269-.742 2.306-2.17 2.367-19.54 1.033-58.604-13.448-63.009-15.073a10.391 10.391 0 0 1-2.618-1.405l-39.104-29.946c-.985-.803-2.341-1.154-3.637-.97-1.295.183-2.334.902-2.721 1.86ZM58.087 36.526c.195.22 21.206 20.624 30.408 34.756 10.118 15.577 31.736 31.936 52.628 39.858 18.448 7.026 32.677 20.073 36.642 23.961 1.266 1.277 2.827 2.292 4.453 2.892l.247.091c2.285.842 3.551.499 4.296.038 1.683-1.143 1.793-3.972.297-8.86-1.432-4.579-5.655-9.446-12.172-13.983-4.457-3.116-8.544-5.063-9.308-5.493l-9.253-7.971 46.998 14.314 4.386 3.312c.231 2.22 1.647 14.729 9.41 22.448 2.004 1.988 3.758 3.229 5.226 3.77.816.301 1.547.348 2.246.235 2.345-.459 2.505-3.413 2.553-3.766.026-.064-.032-.154-.032-.154l-2.954-11.023c7.818 5.24 17.383 11.266 21.63 12.833.488.179.899.331 1.274.321 1.761.284 2.893.04 3.476-.704 1.025-1.385-.856-3.699-1.13-4.171 0 0-.083-.03-.059-.09l-29.076-28.525-6.978-13.608c-1.51-2.765-3.769-5.292-6.509-7.33l-2.22-4.499c-3.167-6.314-7.979-12.282-14.092-17.116l-9.427-7.522c8.991.007 15.221 3.85 15.303 3.88.574.435 15.572 10.89 21.311 11.318.73.047 2.919.192 3.492-.995.625-1.315-1.299-3.052-1.626-3.395l-23.383-19.875c-2.225-1.928-5.112-3.135-8.117-3.581l-1.603-.226c-34.164-4.064-56.953-13.576-70.057-20.833-14.189-7.812-20.309-14.702-20.365-14.797-.335-.34-.849-.456-1.224-.229-.369.23-.449.645-.116.99.247.308 6.455 7.23 20.865 15.198 13.263 7.316 36.376 16.942 70.818 21.04l1.648.094c2.574.361 5.056 1.419 7.004 3.096l23.299 19.85c.688.619 1.348 1.524 1.218 1.847-.05.124-.529.392-1.988.294-4.274-.327-16.061-8.057-20.221-10.99-.386-.216-7.817-4.793-18.393-4.135-.299.038-.542.17-.644.424-.104.258.064.543.261.758l10.852 8.641c5.894 4.673 10.594 10.451 13.653 16.583l1.175 2.42-20.049-12.102c-.379-.214-.951-.202-1.161.085-.213.293-.121.766.265.983l20.511 12.345c3.551 2.12 6.279 4.89 8.039 8.186l4.988 9.713-3.963-3.892c-1.816-1.771-4.052-3.183-6.584-4.117L182.59 90.39c-.488-.18-.919-.047-1.075.34-.155.382.07.762.557.942l23.666 8.727c2.202.813 4.224 2.072 5.852 3.625l36.339 35.842c.61.813 1.395 2.129 1.022 2.585-.184.223-.884.336-1.859.193-2.738-.422-13.668-7.249-23.869-14.024l-.083-.03c-3.555-2.344-6.921-4.686-9.933-6.756l-8.981-6.77c-.059-.09-.223-.15-.306-.181l-61.042-18.54c-.487-.18-.945.016-1.019.434-.128.318.149.785.667.907l10.346 3.154 11.531 9.987c.082.03.138.125.22.155.165.061 17.437 8.126 20.658 18.505 1.692 5.554.889 7.095.245 7.519-.664.491-1.918.103-2.817-.228a9.541 9.541 0 0 1-3.689-2.462c-4.045-3.922-18.527-17.28-37.297-24.425-20.488-7.772-41.746-23.851-51.702-39.145-9.415-14.29-30.464-34.851-30.678-35.004a1.024 1.024 0 0 0-1.25-.165c-.37.23-.367.675-.006.951Zm151.401 84.308 2.659 2.007c1.015.745 4.899 3.427 9.768 6.695l3.389 12.502c-.068.636-.36 2.297-1.383 2.508-.515.106-2.056-.022-5.547-3.444-6.358-6.316-8.297-16.377-8.886-20.268Zm106.346 31.272c.619-1.535-.497-3.419-2.459-4.142-1.955-.721-4.105-.042-4.725 1.492-.621 1.54.495 3.423 2.45 4.145 1.963.723 4.113.044 4.734-1.495Zm-1.633-.603c-.337.835-1.52 1.209-2.583.816-1.057-.389-1.672-1.426-1.335-2.26.335-.83 1.518-1.204 2.575-.814 1.064.392 1.678 1.429 1.343 2.258ZM244.757 99.19c.593-1.47-.441-3.323-2.403-4.047-1.873-.69-3.997-.076-4.617 1.459-.621 1.54.439 3.328 2.394 4.049 1.962.724 4.004.079 4.626-1.46Zm-1.633-.602c-.311.77-1.412 1.174-2.476.782-1.057-.39-1.614-1.332-1.278-2.166.335-.83 1.41-1.17 2.467-.78 1.063.393 1.595 1.4 1.287 2.164Zm-77.905 44.609c-.57 1.411.378 3.01 2.169 3.67 1.797.663 3.622.087 4.192-1.324.567-1.405-.463-3.035-2.178-3.667-1.709-.63-3.642-.02-4.183 1.321Zm1.626.6c.257-.636 1.224-.941 2.04-.64.817.301 1.318 1.148 1.062 1.784-.259.641-1.226.946-2.042.645-.892-.329-1.344-1.084-1.06-1.789Zm42.756 59.69c-.594 1.47.466 3.259 2.34 3.95 1.879.693 3.921.048 4.514-1.422.596-1.475-.464-3.264-2.344-3.957-1.873-.691-3.915-.046-4.51 1.429Zm1.633.602c.31-.769 1.385-1.109 2.36-.749.981.361 1.539 1.303 1.228 2.073-.308.765-1.383 1.104-2.364.743-.975-.36-1.533-1.302-1.224-2.067Z"/><path stroke="#fff" stroke-width="3" d="M268.691 88.835a10.51 10.51 0 0 0 1.223-.203c-.075.277-.134.559-.177.845l-.001.007a7.9 7.9 0 0 0-.076 1.52c.024.516.1 1.028.22 1.532l.002.006c.07.291.156.58.257.866a11.516 11.516 0 0 0-2.898-.508 10.826 10.826 0 0 0-2.864.252c.074-.277.133-.56.176-.85.076-.503.101-1.01.076-1.522a8.105 8.105 0 0 0-.22-1.535 8.68 8.68 0 0 0-.258-.87c.412.127.828.231 1.248.313l.005.001a11.112 11.112 0 0 0 3.282.147l.005-.001ZM121.964 146.693l1.316-.792.002.002c.34.411.64.838.902 1.277.223-.374.477-.731.758-1.07l.004-.005a9.132 9.132 0 0 1 1.187-1.18 9.916 9.916 0 0 1 1.421-.974l.006-.004c.408-.23.833-.433 1.277-.611-.511-.24-.999-.511-1.465-.809l-.005-.003v-.001a12.041 12.041 0 0 1-1.437-1.084 11.328 11.328 0 0 1-1.223-1.26l-.003-.004a10.374 10.374 0 0 1-.9-1.277l-3.185 4.658m1.345 3.137a9.473 9.473 0 0 0-1.063-1.097 10.234 10.234 0 0 0-1.249-.942m2.312 2.039c.322.387.603.795.848 1.217l-.848-1.217Zm-2.312-2.039.97-1.096-.003-.002m-.967 1.098.965-1.1.002.002m-.967 1.098a10.878 10.878 0 0 0-1.4-.764 11.36 11.36 0 0 0-1.338-.508l.151-.028a11.68 11.68 0 0 0 1.755-.484l.004-.002.08-.029.005-.002.242-.094c.505.238.997.508 1.468.813m7.834 1.542a9.137 9.137 0 0 1 1.356-.622l-1.356.622Zm0 0a8.376 8.376 0 0 0-1.195.819 7.662 7.662 0 0 0-.997.992 7.1 7.1 0 0 0-.773 1.137m2.965-2.948-3.412 3.951m.447-1.003a6.79 6.79 0 0 0-.447 1.003m.447-1.003-1.054-.422m1.054.422-1.055-.424.001.002m.607 1.425a10.305 10.305 0 0 0-.078-.229l-.002-.004a9.427 9.427 0 0 0-.527-1.192m.607 1.425-.607-1.425m4.651-4.384-.101.163.001.001h.001l.102-.165.081-.03.002-.001a11.508 11.508 0 0 1 1.752-.484l-1.838.516ZM170.072 191.787c.278-.174.543-.363.793-.566.099.349.22.694.364 1.036l.002.005c.202.477.445.946.735 1.404.288.457.615.892.975 1.306l.004.004c.258.296.534.58.828.853a9.939 9.939 0 0 0-2.579.628 8.587 8.587 0 0 0-1.381.697 7.954 7.954 0 0 0-.799.568 9.508 9.508 0 0 0-1.101-2.444 10.39 10.39 0 0 0-.977-1.308 10.8 10.8 0 0 0-.83-.855 10.57 10.57 0 0 0 1.047-.166l.006-.002a9.546 9.546 0 0 0 1.527-.461 8.69 8.69 0 0 0 1.38-.695l.006-.004Z"/></g><defs><filter id="a" width="358.029" height="306.967" x="53.816" y="11.69" color-interpolation-filters="sRGB" filterUnits="userSpaceOnUse"><feFlood flood-opacity="0" result="BackgroundImageFix"/><feColorMatrix in="SourceAlpha" result="hardAlpha" values="0 0 0 0 0 0 0 0 0 0 0 0 0 0 0 0 0 0 127 0"/><feOffset dy="4"/><feGaussianBlur stdDeviation="2"/><feComposite in2="hardAlpha" operator="out"/><feColorMatrix values="0 0 0 0 0.196078 0 0 0 0 0.196078 0 0 0 0 0.196078 0 0 0 0.75 0"/><feBlend in2="BackgroundImageFix" result="effect1_dropShadow_727_7575"/><feBlend in="SourceGraphic" in2="effect1_dropShadow_727_7575" result="shape"/></filter><filter id="b" width="358.029" height="306.967" x="53.816" y="11.69" color-interpolation-filters="sRGB" filterUnits="userSpaceOnUse"><feFlood flood-opacity="0" result="BackgroundImageFix"/><feColorMatrix in="SourceAlpha" result="hardAlpha" values="0 0 0 0 0 0 0 0 0 0 0 0 0 0 0 0 0 0 127 0"/><feOffset dy="4"/><feGaussianBlur stdDeviation="2"/><feComposite in2="hardAlpha" operator="out"/><feColorMatrix values="0 0 0 0 0.196078 0 0 0 0 0.196078 0 0 0 0 0.196078 0 0 0 0.75 0"/><feBlend in2="BackgroundImageFix" result="effect1_dropShadow_727_7575"/><feBlend in="SourceGraphic" in2="effect1_dropShadow_727_7575" result="shape"/></filter></defs></svg>