<svg width="426" height="188" viewBox="0 0 426 188" fill="none" xmlns="http://www.w3.org/2000/svg">
<path d="M201.909 109.526C201.853 111.395 208.087 115.256 211.68 117.39C211.678 117.46 211.677 117.46 211.763 117.529C212.009 117.877 217.268 125.465 231.285 133.668C232 135.943 233.581 138.362 236.12 140.775C240.857 145.258 247.285 148.498 254.8 150.078L286.01 156.548C286.264 156.618 286.525 156.687 286.786 156.757L287.299 156.965C287.813 157.168 288.239 157.586 288.312 158.067C288.385 158.549 288.196 159.036 287.747 159.379C287.215 159.792 286.512 160.071 285.817 160.071L270.536 161.943C268.531 162.222 266.357 162.293 264.351 162.359C263.567 162.429 262.784 162.429 262.087 162.499C258.168 162.71 254.07 163.055 251.015 163.474C245.252 164.238 244.098 164.924 243.986 165.753C243.97 166.305 244.216 166.856 244.723 167.273C247.53 169.547 258.669 169.267 259.973 169.197C286.229 169.594 318.385 167.37 318.738 167.3C318.995 167.3 337.931 165.217 360.39 173.347C378.805 179.963 388.333 187.136 388.419 187.206C388.59 187.345 388.757 187.409 389.02 187.409C389.283 187.409 389.454 187.345 389.633 187.205C389.992 186.927 390.004 186.515 389.662 186.236C389.576 186.167 379.796 178.86 361.122 172.104C338.236 163.836 318.777 165.989 318.602 165.989C318.339 165.989 286.181 168.283 260.014 167.816C255.49 167.958 247.754 167.684 246.061 166.304C245.889 166.17 245.806 166.031 245.808 165.961C246.872 165.34 253.249 164.367 262.222 163.88C263.006 163.81 263.701 163.81 264.486 163.74C266.572 163.669 268.755 163.534 270.848 163.254L286.122 161.382C287.258 161.312 288.316 160.899 289.117 160.278C290.001 159.587 290.378 158.687 290.231 157.724C290.085 156.755 289.325 155.995 288.298 155.584L287.778 155.375C287.438 155.236 287.091 155.102 286.662 155.033L255.459 148.563C248.286 147.047 242.109 144.015 237.628 139.741C235.937 138.082 234.596 136.429 233.861 134.839C234.969 135.46 236.172 136.08 237.368 136.7C240.286 138.149 243.471 139.25 246.842 140.008L291.25 149.784C291.337 149.784 291.425 149.784 291.513 149.784C291.864 149.784 292.214 149.575 292.397 149.302C292.495 148.954 292.245 148.542 291.815 148.472L247.4 138.696C244.203 138.008 241.106 136.907 238.36 135.527C225.765 129.186 218.656 122.562 215.541 119.117L241.278 131.109C249.595 134.969 258.658 137.378 268.283 138.342L297.249 141.082C297.685 141.151 298.125 140.878 298.225 140.46C298.323 140.118 297.983 139.77 297.465 139.706L268.499 136.961C259.135 136.067 250.246 133.727 242.183 129.936L215.417 117.388C212.503 116.008 203.88 110.633 203.919 109.322C203.937 108.701 204.297 108.149 205.003 107.801C205.627 107.458 206.411 107.388 207.188 107.591L254.24 122.13C255.363 122.472 256.571 122.68 257.792 122.679C274.916 122.808 290.083 121.831 302.839 119.821C314.985 117.882 320.967 115.673 322.988 114.842C325.196 113.877 326.04 111.805 324.958 110.082C323.715 108.08 321.671 106.492 319.087 105.594C312.55 103.322 297.075 97.1912 294.246 90.0141C292.957 86.6317 293.68 85.6623 294.031 85.4587C295.097 84.7675 298.196 85.7989 299.998 86.6972C299.998 86.6972 300.085 86.6971 300.083 86.7667L345.808 104.893C357.953 108.885 368.488 117.369 376.981 124.2C380.037 126.682 382.929 129.025 385.482 130.748L419.759 153.848C419.931 153.987 420.106 153.987 420.281 153.987C420.538 153.987 420.803 153.917 420.984 153.714C421.337 153.435 421.263 152.953 420.925 152.745L386.468 129.783C383.996 128.061 381.111 125.713 378.053 123.3C369.475 116.405 358.769 107.782 346.369 103.715L300.725 85.594C300.041 85.2464 295.24 82.9045 292.759 84.4209C291.253 85.3907 291.108 87.3233 292.316 90.497C295.227 97.8774 309.658 103.945 318.097 106.906C320.247 107.665 322.034 109.045 323.109 110.768C323.771 111.876 323.213 113.187 321.894 113.74C303.923 121.48 262.261 121.434 257.566 121.437C256.521 121.438 255.567 121.299 254.624 121.027L207.565 106.488C206.363 106.076 204.969 106.216 203.817 106.838C202.665 107.46 201.94 108.493 201.909 109.526ZM5.42508 36.9647C5.68404 37.1038 32.4637 48.9617 45.9938 59.0286C60.8827 70.1333 86.8302 77.9875 109.174 78.178C128.913 78.3754 146.782 85.6829 151.848 87.9551C153.478 88.7143 155.294 89.1254 157.028 89.1244C157.115 89.1244 157.203 89.1243 157.291 89.1243C159.726 89.1229 160.794 88.3621 161.334 87.6712C162.517 86.0164 161.639 83.3243 158.542 79.2576C155.612 75.4585 149.963 72.3569 142.278 70.3593C137.017 68.9812 132.51 68.5716 131.643 68.4329L120.201 64.1623L169.248 61.3021L174.51 62.889C175.496 64.8905 181.159 76.1343 191.116 80.6842C193.685 81.855 195.759 82.4106 197.324 82.4097C198.195 82.4092 198.896 82.2 199.513 81.8517C201.554 80.6086 200.68 77.7826 200.602 77.4347C200.604 77.3651 200.519 77.3009 200.519 77.3009L193.928 67.9848C203.077 70.1903 214.139 72.5287 218.665 72.526C219.185 72.5257 219.623 72.5255 219.971 72.3861C221.722 72.0425 222.698 71.421 222.988 70.5215C223.469 68.867 220.903 67.3482 220.482 67.0005C220.482 67.0005 220.394 67.0005 220.396 66.9363L183.236 50.2558L171.974 39.9092C169.601 37.8389 166.605 36.2507 163.328 35.289L159.687 31.8383C154.528 27.0127 147.946 23.0819 140.537 20.6665L129.087 16.8777C137.524 13.768 144.699 15.2145 144.787 15.2145C145.475 15.4229 163.168 20.0325 168.699 18.4447C169.4 18.2356 171.503 17.6134 171.63 16.3018C171.761 14.851 169.354 13.8888 168.928 13.6802L140.106 3.14038C137.351 2.10345 134.225 1.97142 131.251 2.59411L129.669 2.93763C96.2143 10.9653 71.5413 9.94106 56.734 7.6745C40.7167 5.2641 32.5887 0.921991 32.503 0.852448C32.0706 0.649277 31.5491 0.719169 31.2758 1.06193C31.0093 1.40469 31.0779 1.8222 31.5101 2.03073C31.8482 2.23395 40.0706 6.57601 56.349 9.05585C71.3249 11.3223 96.3421 12.341 130.069 4.24893L131.648 3.76623C134.188 3.21339 136.882 3.34566 139.291 4.24361L168.025 14.7889C168.885 15.131 169.818 15.7514 169.808 16.0994C169.804 16.2332 169.447 16.651 168.045 17.064C163.923 18.2387 150.188 15.0722 145.268 13.7635C144.832 13.6942 136.275 11.9754 126.582 16.2582C126.315 16.3975 126.133 16.6064 126.125 16.8794C126.117 17.1578 126.374 17.3664 126.633 17.5001L139.807 21.8446C146.955 24.1852 153.366 27.9769 158.36 32.6688L160.302 34.5306L137.301 30.1275C136.871 30.0581 136.339 30.2672 136.241 30.6099C136.143 30.9579 136.394 31.37 136.83 31.4393L160.348 35.9117C164.414 36.6695 167.933 38.3216 170.727 40.8039L178.771 48.1867L173.705 45.9091C171.388 44.8773 168.801 44.3274 166.102 44.329L140.879 44.3435C140.36 44.3438 140.001 44.617 139.988 45.0346C139.976 45.4468 140.319 45.725 140.838 45.7247L166.061 45.7101C168.409 45.7088 170.742 46.1892 172.807 47.082L219.316 68.1093C220.17 68.6602 221.362 69.6231 221.17 70.1799C221.074 70.453 220.457 70.8013 219.493 71.0053C216.778 71.5582 204.16 68.9424 192.243 66.1228L192.155 66.1229C188.008 65.1563 184.039 64.1255 180.497 63.2282L169.725 59.9903C169.639 59.9262 169.464 59.9263 169.376 59.9263L105.691 63.6889C105.172 63.6892 104.811 64.032 104.886 64.4495C104.876 64.7921 105.298 65.1345 105.826 65.0699L116.624 64.4427L130.901 69.8145C130.989 69.8144 131.074 69.884 131.162 69.8839C131.337 69.8838 150.334 71.4627 156.952 80.0829C160.464 84.7061 160.244 86.4299 159.787 87.0512C159.335 87.742 158.024 87.8123 157.066 87.8129C155.589 87.8137 154.122 87.472 152.753 86.7822C147.599 84.5047 129.386 76.994 109.302 76.7968C87.3906 76.606 61.8775 68.8907 47.2388 57.9947C33.4546 47.853 6.58439 35.8613 6.33011 35.7918C5.89784 35.5833 5.37429 35.7228 5.10086 36.0709C4.83434 36.4137 4.99058 36.8311 5.42508 36.9647ZM176.661 63.5783L179.85 64.5401C181.061 64.8873 185.634 66.057 191.334 67.4349L198.845 77.9871C199.002 78.6079 199.304 80.2672 198.417 80.8191C197.971 81.0978 196.481 81.5108 192.021 79.5113C183.867 75.7902 178.562 67.0247 176.661 63.5783ZM287.254 56.0575C287.303 54.4033 285.604 53.0232 283.512 53.0244C281.428 53.0256 279.646 54.4077 279.597 56.0619C279.548 57.7214 281.247 59.1016 283.332 59.1003C285.423 59.0991 287.205 57.717 287.254 56.0575ZM285.514 56.0585C285.487 56.9578 284.506 57.7185 283.373 57.7192C282.246 57.7199 281.311 56.9602 281.338 56.0609C281.364 55.1669 282.345 54.4062 283.471 54.4055C284.605 54.4049 285.54 55.1645 285.514 56.0585ZM202.243 31.0536C202.29 29.469 200.678 28.0888 198.587 28.09C196.59 28.0912 194.811 29.4037 194.762 31.0579C194.712 32.7174 196.326 34.028 198.411 34.0268C200.502 34.0256 202.194 32.7131 202.243 31.0536ZM200.503 31.0546C200.478 31.8843 199.585 32.645 198.452 32.6457C197.325 32.6463 196.475 31.9562 196.502 31.0569C196.529 30.1629 197.419 29.4718 198.546 29.4712C199.679 29.4705 200.527 30.2302 200.503 31.0546ZM142.885 99.8979C142.84 101.418 144.283 102.59 146.192 102.589C148.108 102.588 149.62 101.414 149.665 99.894C149.71 98.379 148.18 97.2075 146.352 97.2086C144.53 97.2096 142.928 98.4525 142.885 99.8979ZM144.619 99.8969C144.639 99.2117 145.44 98.5902 146.311 98.5897C147.181 98.5892 147.945 99.2098 147.924 99.895C147.904 100.586 147.103 101.207 146.233 101.207C145.282 101.208 144.596 100.657 144.619 99.8969ZM205.411 141.071C205.364 142.655 206.978 143.966 208.974 143.965C210.978 143.964 212.67 142.651 212.717 141.067C212.764 139.477 211.15 138.166 209.147 138.167C207.15 138.168 205.458 139.481 205.411 141.071ZM207.151 141.07C207.176 140.24 208.067 139.549 209.106 139.548C210.151 139.548 211.001 140.238 210.976 141.068C210.952 141.892 210.061 142.583 209.015 142.584C207.977 142.584 207.127 141.894 207.151 141.07Z" fill="white"/>
<mask id="path-2-inside-1_727_7578" fill="white">
<path d="M224.164 9.46208C224.007 9.85272 223.888 10.2518 223.809 10.6589C223.729 11.0643 223.692 11.4736 223.695 11.884C223.698 12.296 223.741 12.7019 223.824 13.1055C223.909 13.5086 224.032 13.9031 224.195 14.2881C224.358 14.6715 224.559 15.0407 224.796 15.3954C225.034 15.7495 225.304 16.0845 225.609 16.3983C225.915 16.7137 226.248 17.0028 226.612 17.2683C226.976 17.5338 227.365 17.7707 227.776 17.9795C230.412 19.2845 233.127 20.4644 235.917 21.5199C233.147 20.4252 230.314 19.4627 227.418 18.6295C226.961 18.501 226.494 18.4082 226.017 18.3482C225.541 18.2897 225.059 18.2638 224.575 18.2735C224.093 18.2841 223.612 18.3271 223.137 18.4065C222.661 18.4843 222.194 18.5973 221.74 18.7423C221.285 18.8879 220.847 19.0642 220.426 19.2729C220.003 19.4806 219.605 19.7184 219.23 19.9816C218.854 20.2469 218.509 20.5369 218.19 20.8497C217.872 21.164 217.586 21.4972 217.332 21.8531C215.749 24.1161 214.312 26.4447 213.021 28.8374C214.357 26.4633 215.542 24.0372 216.574 21.5597C216.731 21.1691 216.848 20.7706 216.927 20.3635C217.006 19.9565 217.045 19.5483 217.042 19.1363C217.038 18.7264 216.996 18.3183 216.911 17.9153C216.828 17.5117 216.704 17.1193 216.541 16.7343C216.378 16.3494 216.179 15.9811 215.94 15.627C215.704 15.2723 215.432 14.9378 215.129 14.6235C214.823 14.3082 214.488 14.0196 214.124 13.7541C213.76 13.4886 213.373 13.2511 212.962 13.0423C210.325 11.7373 207.611 10.5574 204.821 9.50195C207.59 10.5951 210.424 11.5591 213.32 12.3923C213.776 12.5193 214.243 12.6121 214.72 12.6721C215.197 12.7321 215.678 12.7565 216.16 12.7474C216.645 12.7377 217.125 12.6932 217.601 12.6153C218.076 12.536 218.542 12.4251 218.997 12.2795C219.453 12.1339 219.891 11.9561 220.314 11.7483C220.734 11.5396 221.133 11.3034 221.507 11.0387C221.883 10.7734 222.23 10.4843 222.549 10.17C222.867 9.85575 223.153 9.5225 223.406 9.16876C224.988 6.90416 226.425 4.57555 227.717 2.18445C226.381 4.55851 225.196 6.98458 224.164 9.46208Z"/>
</mask>
<path d="M224.164 9.46208C224.007 9.85272 223.888 10.2518 223.809 10.6589C223.729 11.0643 223.692 11.4736 223.695 11.884C223.698 12.296 223.741 12.7019 223.824 13.1055C223.909 13.5086 224.032 13.9031 224.195 14.2881C224.358 14.6715 224.559 15.0407 224.796 15.3954C225.034 15.7495 225.304 16.0845 225.609 16.3983C225.915 16.7137 226.248 17.0028 226.612 17.2683C226.976 17.5338 227.365 17.7707 227.776 17.9795C230.412 19.2845 233.127 20.4644 235.917 21.5199C233.147 20.4252 230.314 19.4627 227.418 18.6295C226.961 18.501 226.494 18.4082 226.017 18.3482C225.541 18.2897 225.059 18.2638 224.575 18.2735C224.093 18.2841 223.612 18.3271 223.137 18.4065C222.661 18.4843 222.194 18.5973 221.74 18.7423C221.285 18.8879 220.847 19.0642 220.426 19.2729C220.003 19.4806 219.605 19.7184 219.23 19.9816C218.854 20.2469 218.509 20.5369 218.19 20.8497C217.872 21.164 217.586 21.4972 217.332 21.8531C215.749 24.1161 214.312 26.4447 213.021 28.8374C214.357 26.4633 215.542 24.0372 216.574 21.5597C216.731 21.1691 216.848 20.7706 216.927 20.3635C217.006 19.9565 217.045 19.5483 217.042 19.1363C217.038 18.7264 216.996 18.3183 216.911 17.9153C216.828 17.5117 216.704 17.1193 216.541 16.7343C216.378 16.3494 216.179 15.9811 215.94 15.627C215.704 15.2723 215.432 14.9378 215.129 14.6235C214.823 14.3082 214.488 14.0196 214.124 13.7541C213.76 13.4886 213.373 13.2511 212.962 13.0423C210.325 11.7373 207.611 10.5574 204.821 9.50195C207.59 10.5951 210.424 11.5591 213.32 12.3923C213.776 12.5193 214.243 12.6121 214.72 12.6721C215.197 12.7321 215.678 12.7565 216.16 12.7474C216.645 12.7377 217.125 12.6932 217.601 12.6153C218.076 12.536 218.542 12.4251 218.997 12.2795C219.453 12.1339 219.891 11.9561 220.314 11.7483C220.734 11.5396 221.133 11.3034 221.507 11.0387C221.883 10.7734 222.23 10.4843 222.549 10.17C222.867 9.85575 223.153 9.5225 223.406 9.16876C224.988 6.90416 226.425 4.57555 227.717 2.18445C226.381 4.55851 225.196 6.98458 224.164 9.46208Z" stroke="white" stroke-width="6" mask="url(#path-2-inside-1_727_7578)"/>
<mask id="path-3-inside-2_727_7578" fill="white">
<path d="M112.759 111.76C112.271 111.966 111.803 112.203 111.358 112.473C110.915 112.742 110.5 113.041 110.113 113.368C109.726 113.697 109.375 114.047 109.057 114.422C108.74 114.798 108.46 115.191 108.22 115.605C107.981 116.016 107.784 116.442 107.628 116.88C107.474 117.318 107.363 117.763 107.297 118.214C107.231 118.667 107.21 119.117 107.235 119.568C107.26 120.02 107.331 120.465 107.446 120.904C108.212 123.686 109.156 126.42 110.275 129.106C109.208 126.402 107.969 123.762 106.56 121.181C106.335 120.776 106.068 120.393 105.763 120.029C105.457 119.667 105.116 119.328 104.74 119.014C104.364 118.703 103.959 118.418 103.523 118.166C103.088 117.912 102.627 117.692 102.146 117.506C101.663 117.319 101.163 117.169 100.647 117.055C100.13 116.939 99.603 116.864 99.0697 116.824C98.5336 116.785 97.9975 116.786 97.4597 116.822C96.9209 116.86 96.3889 116.934 95.8599 117.048C92.519 117.791 89.2271 118.684 85.9853 119.723C89.2435 118.728 92.4364 117.591 95.5621 116.313C96.0508 116.108 96.5165 115.87 96.9612 115.599C97.4058 115.329 97.8218 115.032 98.209 114.703C98.5934 114.376 98.9472 114.025 99.2638 113.649C99.5822 113.274 99.8596 112.881 100.1 112.468C100.34 112.055 100.537 111.631 100.691 111.192C100.847 110.755 100.957 110.309 101.024 109.859C101.091 109.407 101.109 108.956 101.084 108.504C101.059 108.052 100.99 107.608 100.875 107.169C100.109 104.387 99.1655 101.653 98.0466 98.9668C99.114 101.669 100.352 104.311 101.761 106.892C101.988 107.295 102.254 107.678 102.559 108.042C102.865 108.406 103.206 108.744 103.581 109.057C103.958 109.37 104.364 109.653 104.798 109.907C105.234 110.159 105.692 110.38 106.176 110.567C106.659 110.754 107.159 110.903 107.676 111.019C108.193 111.132 108.718 111.209 109.253 111.248C109.789 111.287 110.326 111.288 110.865 111.25C111.403 111.212 111.935 111.138 112.461 111.025C115.803 110.28 119.095 109.388 122.336 108.35C119.078 109.345 115.885 110.482 112.759 111.76Z"/>
</mask>
<path d="M112.759 111.76C112.271 111.966 111.803 112.203 111.358 112.473C110.915 112.742 110.5 113.041 110.113 113.368C109.726 113.697 109.375 114.047 109.057 114.422C108.74 114.798 108.46 115.191 108.22 115.605C107.981 116.016 107.784 116.442 107.628 116.88C107.474 117.318 107.363 117.763 107.297 118.214C107.231 118.667 107.21 119.117 107.235 119.568C107.26 120.02 107.331 120.465 107.446 120.904C108.212 123.686 109.156 126.42 110.275 129.106C109.208 126.402 107.969 123.762 106.56 121.181C106.335 120.776 106.068 120.393 105.763 120.029C105.457 119.667 105.116 119.328 104.74 119.014C104.364 118.703 103.959 118.418 103.523 118.166C103.088 117.912 102.627 117.692 102.146 117.506C101.663 117.319 101.163 117.169 100.647 117.055C100.13 116.939 99.603 116.864 99.0697 116.824C98.5336 116.785 97.9975 116.786 97.4597 116.822C96.9209 116.86 96.3889 116.934 95.8599 117.048C92.519 117.791 89.2271 118.684 85.9853 119.723C89.2435 118.728 92.4364 117.591 95.5621 116.313C96.0508 116.108 96.5165 115.87 96.9612 115.599C97.4058 115.329 97.8218 115.032 98.209 114.703C98.5934 114.376 98.9472 114.025 99.2638 113.649C99.5822 113.274 99.8596 112.881 100.1 112.468C100.34 112.055 100.537 111.631 100.691 111.192C100.847 110.755 100.957 110.309 101.024 109.859C101.091 109.407 101.109 108.956 101.084 108.504C101.059 108.052 100.99 107.608 100.875 107.169C100.109 104.387 99.1655 101.653 98.0466 98.9668C99.114 101.669 100.352 104.311 101.761 106.892C101.988 107.295 102.254 107.678 102.559 108.042C102.865 108.406 103.206 108.744 103.581 109.057C103.958 109.37 104.364 109.653 104.798 109.907C105.234 110.159 105.692 110.38 106.176 110.567C106.659 110.754 107.159 110.903 107.676 111.019C108.193 111.132 108.718 111.209 109.253 111.248C109.789 111.287 110.326 111.288 110.865 111.25C111.403 111.212 111.935 111.138 112.461 111.025C115.803 110.28 119.095 109.388 122.336 108.35C119.078 109.345 115.885 110.482 112.759 111.76Z" stroke="white" stroke-width="6" mask="url(#path-3-inside-2_727_7578)"/>
<mask id="path-4-inside-3_727_7578" fill="white">
<path d="M165.063 139.671C165.143 140.071 165.262 140.465 165.422 140.851C165.58 141.236 165.778 141.608 166.012 141.968C166.248 142.329 166.516 142.669 166.819 142.994C167.123 143.317 167.456 143.619 167.819 143.898C168.182 144.175 168.571 144.427 168.983 144.652C169.397 144.877 169.829 145.073 170.279 145.238C170.731 145.404 171.193 145.537 171.669 145.639C172.145 145.74 172.627 145.807 173.113 145.841C176.212 146.031 179.31 146.083 182.406 145.998C179.306 146.041 176.225 146.223 173.16 146.542C172.678 146.594 172.208 146.682 171.746 146.802C171.287 146.924 170.841 147.075 170.413 147.26C169.987 147.444 169.581 147.656 169.2 147.898C168.818 148.139 168.463 148.407 168.139 148.699C167.813 148.992 167.52 149.306 167.262 149.641C167 149.977 166.778 150.33 166.591 150.697C166.405 151.067 166.259 151.446 166.15 151.837C166.043 152.228 165.975 152.624 165.949 153.029C165.81 155.59 165.84 158.156 166.036 160.725C165.89 158.156 165.58 155.596 165.104 153.046C165.024 152.646 164.904 152.254 164.744 151.868C164.585 151.482 164.389 151.109 164.154 150.748C163.918 150.39 163.65 150.047 163.346 149.724C163.043 149.399 162.711 149.1 162.347 148.821C161.983 148.542 161.597 148.291 161.183 148.066C160.771 147.84 160.338 147.645 159.889 147.479C159.437 147.313 158.974 147.181 158.498 147.08C158.022 146.979 157.541 146.91 157.054 146.876C153.955 146.686 150.857 146.634 147.762 146.719C150.86 146.675 153.942 146.494 157.007 146.176C157.488 146.122 157.958 146.034 158.42 145.914C158.881 145.793 159.325 145.641 159.752 145.458C160.181 145.274 160.585 145.06 160.968 144.82C161.348 144.578 161.703 144.311 162.029 144.018C162.354 143.725 162.646 143.41 162.907 143.075C163.166 142.739 163.389 142.387 163.575 142.019C163.762 141.65 163.91 141.27 164.017 140.878C164.125 140.487 164.192 140.091 164.219 139.688C164.356 137.126 164.326 134.56 164.132 131.992C164.277 134.561 164.587 137.121 165.063 139.671Z"/>
</mask>
<path d="M165.063 139.671C165.143 140.071 165.262 140.465 165.422 140.851C165.58 141.236 165.778 141.608 166.012 141.968C166.248 142.329 166.516 142.669 166.819 142.994C167.123 143.317 167.456 143.619 167.819 143.898C168.182 144.175 168.571 144.427 168.983 144.652C169.397 144.877 169.829 145.073 170.279 145.238C170.731 145.404 171.193 145.537 171.669 145.639C172.145 145.74 172.627 145.807 173.113 145.841C176.212 146.031 179.31 146.083 182.406 145.998C179.306 146.041 176.225 146.223 173.16 146.542C172.678 146.594 172.208 146.682 171.746 146.802C171.287 146.924 170.841 147.075 170.413 147.26C169.987 147.444 169.581 147.656 169.2 147.898C168.818 148.139 168.463 148.407 168.139 148.699C167.813 148.992 167.52 149.306 167.262 149.641C167 149.977 166.778 150.33 166.591 150.697C166.405 151.067 166.259 151.446 166.15 151.837C166.043 152.228 165.975 152.624 165.949 153.029C165.81 155.59 165.84 158.156 166.036 160.725C165.89 158.156 165.58 155.596 165.104 153.046C165.024 152.646 164.904 152.254 164.744 151.868C164.585 151.482 164.389 151.109 164.154 150.748C163.918 150.39 163.65 150.047 163.346 149.724C163.043 149.399 162.711 149.1 162.347 148.821C161.983 148.542 161.597 148.291 161.183 148.066C160.771 147.84 160.338 147.645 159.889 147.479C159.437 147.313 158.974 147.181 158.498 147.08C158.022 146.979 157.541 146.91 157.054 146.876C153.955 146.686 150.857 146.634 147.762 146.719C150.86 146.675 153.942 146.494 157.007 146.176C157.488 146.122 157.958 146.034 158.42 145.914C158.881 145.793 159.325 145.641 159.752 145.458C160.181 145.274 160.585 145.06 160.968 144.82C161.348 144.578 161.703 144.311 162.029 144.018C162.354 143.725 162.646 143.41 162.907 143.075C163.166 142.739 163.389 142.387 163.575 142.019C163.762 141.65 163.91 141.27 164.017 140.878C164.125 140.487 164.192 140.091 164.219 139.688C164.356 137.126 164.326 134.56 164.132 131.992C164.277 134.561 164.587 137.121 165.063 139.671Z" stroke="white" stroke-width="6" mask="url(#path-4-inside-3_727_7578)"/>
</svg>
