<svg width="288" height="67" viewBox="0 0 288 67" fill="none" xmlns="http://www.w3.org/2000/svg">
<path d="M141.961 65.4031C102.417 63.294 66.885 57.7584 41.4089 50.5211C28.6668 46.9013 18.4671 42.8633 11.542 38.6313C8.07909 36.5151 5.45805 34.3641 3.74532 32.2127C2.03501 30.0644 1.25102 27.9436 1.39638 25.8648C1.54174 23.786 2.61541 21.7643 4.61235 19.8137C6.61211 17.8603 9.51337 16.0039 13.2454 14.2714C20.7087 10.8068 31.3952 7.88277 44.547 5.64407C70.8422 1.16807 106.881 -0.550144 146.426 1.55901C185.97 3.66817 221.502 9.20369 246.978 16.441C259.72 20.0608 269.92 24.0988 276.845 28.3308C280.308 30.4471 282.929 32.598 284.642 34.7494C286.352 36.8977 287.136 39.0185 286.99 41.0973C286.845 43.1761 285.771 45.1979 283.774 47.1485C281.775 49.1018 278.873 50.9582 275.141 52.6907C267.678 56.1553 256.992 59.0794 243.84 61.318C217.545 65.7941 181.506 67.5123 141.961 65.4031Z" fill="white" stroke="#9C7C9C"/>
</svg>
