<svg width="287" height="67" viewBox="0 0 287 67" fill="none" xmlns="http://www.w3.org/2000/svg">
<path d="M144.562 65.6535C104.978 66.8057 69.0304 64.2149 42.914 59.1017C29.8517 56.5444 19.2764 53.3612 11.9404 49.7155C8.27202 47.8924 5.43802 45.9656 3.50812 43.9635C1.58094 41.9643 0.578726 39.9163 0.506001 37.8337C0.433275 35.7511 1.29056 33.6489 3.07434 31.5417C4.86064 29.4315 7.55444 27.3437 11.0882 25.311C18.155 21.246 28.4867 17.4543 41.344 14.1425C67.0506 7.52089 102.745 2.8447 142.329 1.6925C181.913 0.54029 217.861 3.13113 243.977 8.24427C257.039 10.8016 267.615 13.9848 274.951 17.6305C278.619 19.4536 281.453 21.3805 283.383 23.3825C285.31 25.3817 286.312 27.4297 286.385 29.5123C286.458 31.5949 285.6 33.6971 283.817 35.8043C282.03 37.9145 279.336 40.0023 275.803 42.035C268.736 46.1 258.404 49.8917 245.547 53.2035C219.84 59.8251 184.146 64.5013 144.562 65.6535Z" fill="currentColor"/>
</svg>
