<svg width="24" height="25" viewBox="0 0 24 25" fill="none" xmlns="http://www.w3.org/2000/svg">
<path d="M21.9994 17.4738V20.4846C22.0005 20.7642 21.9432 21.0408 21.831 21.2969C21.7188 21.553 21.5542 21.7829 21.3478 21.9719C21.1415 22.1608 20.8978 22.3047 20.6325 22.3942C20.3672 22.4838 20.0861 22.517 19.8072 22.4919C16.7128 22.1563 13.7404 21.101 11.1289 19.4108C8.69921 17.8699 6.63926 15.8141 5.09534 13.3892C3.39586 10.771 2.33824 7.79008 2.00816 4.68795C1.98303 4.41042 2.01608 4.13071 2.1052 3.86663C2.19432 3.60254 2.33757 3.35987 2.52581 3.15407C2.71405 2.94826 2.94317 2.78383 3.19858 2.67123C3.45398 2.55864 3.73008 2.50036 4.0093 2.5001H7.02608C7.5141 2.4953 7.98722 2.66778 8.35725 2.98537C8.72727 3.30297 8.96896 3.74401 9.03727 4.22629C9.1646 5.18982 9.40074 6.13587 9.74118 7.04642C9.87648 7.40563 9.90576 7.79602 9.82556 8.17133C9.74536 8.54665 9.55903 8.89115 9.28867 9.16402L8.01156 10.4386C9.44308 12.9512 11.5276 15.0315 14.0451 16.4602L15.3222 15.1856C15.5956 14.9158 15.9408 14.7298 16.3169 14.6498C16.6929 14.5698 17.0841 14.599 17.444 14.734C18.3564 15.0738 19.3043 15.3095 20.2698 15.4365C20.7582 15.5053 21.2044 15.7509 21.5233 16.1265C21.8422 16.5021 22.0116 16.9817 21.9994 17.4738Z"  stroke-width="2" stroke-linecap="round" stroke-linejoin="round"/>
</svg>
