<svg width="35" height="35" viewBox="0 0 35 35" fill="none" xmlns="http://www.w3.org/2000/svg">
<path d="M29.9992 23.7173V27.4808C30.0006 27.8302 29.9289 28.176 29.7887 28.4961C29.6484 28.8163 29.4428 29.1036 29.1848 29.3398C28.9268 29.576 28.6223 29.7558 28.2907 29.8678C27.959 29.9797 27.6076 30.0213 27.259 29.9898C23.391 29.5704 19.6755 28.2513 16.4111 26.1385C13.374 24.2124 10.7991 21.6426 8.86917 18.6115C6.74483 15.3387 5.4228 11.6126 5.0102 7.73494C4.97879 7.38803 5.0201 7.03839 5.1315 6.70828C5.2429 6.37818 5.42196 6.07484 5.65726 5.81758C5.89256 5.56032 6.17896 5.35478 6.49822 5.21404C6.81748 5.0733 7.1626 5.00045 7.51162 5.00012H11.2826C11.8926 4.99413 12.484 5.20972 12.9466 5.60671C13.4091 6.00371 13.7112 6.55501 13.7966 7.15787C13.9557 8.36227 14.2509 9.54484 14.6765 10.683C14.8456 11.132 14.8822 11.62 14.7819 12.0892C14.6817 12.5583 14.4488 12.9889 14.1108 13.33L12.5145 14.9232C14.3039 18.0639 16.9095 20.6644 20.0564 22.4503L21.6528 20.857C21.9946 20.5197 22.426 20.2873 22.8961 20.1872C23.3662 20.0872 23.8551 20.1237 24.305 20.2925C25.4455 20.7172 26.6304 21.0118 27.8372 21.1707C28.4478 21.2566 29.0054 21.5636 29.4041 22.0331C29.8027 22.5027 30.0145 23.1021 29.9992 23.7173Z" stroke-linecap="round" stroke-linejoin="round"/>
</svg>
