<svg width="256" height="68" viewBox="0 0 256 68" fill="none" xmlns="http://www.w3.org/2000/svg">
<path d="M125.78 66.2363C90.5491 63.7727 58.9238 57.9172 36.2768 50.4508C24.9495 46.7163 15.896 42.5878 9.76284 38.2971C3.5998 33.9854 0.529742 29.6153 0.823082 25.4203C1.11642 21.2254 4.76482 17.325 11.4679 13.9131C18.1385 10.5177 27.6786 7.68932 39.4153 5.56767C62.8811 1.32576 95.0135 -0.0713827 130.245 2.39222C165.476 4.85582 197.101 10.7113 219.748 18.1778C231.075 21.9122 240.129 26.0408 246.262 30.3315C252.425 34.6431 255.495 39.0133 255.202 43.2082C254.909 47.4032 251.26 51.3035 244.557 54.7155C237.886 58.1109 228.346 60.9392 216.61 63.0609C193.144 67.3028 161.011 68.6999 125.78 66.2363Z" fill="white" />
</svg>
