<svg width="251" height="59" viewBox="0 0 251 59" fill="none" xmlns="http://www.w3.org/2000/svg">
<path d="M123.477 56.4739C89.0686 54.0678 58.1469 48.8218 35.9726 42.2924C24.8814 39.0265 16.0052 35.4472 9.97891 31.757C6.96518 29.9116 4.68795 28.0527 3.20104 26.2118C1.7163 24.3735 1.04314 22.5845 1.16408 20.8549C1.28502 19.1254 2.20061 17.4475 3.92674 15.8337C5.6554 14.2176 8.16918 12.6937 11.4104 11.2857C17.8916 8.4702 27.1795 6.16102 38.6173 4.47052C61.4846 1.09075 92.8355 0.199299 127.244 2.6054C161.653 5.01149 192.575 10.2575 214.749 16.7869C225.84 20.0527 234.716 23.6321 240.743 27.3222C243.756 29.1676 246.034 31.0265 247.521 32.8675C249.005 34.7058 249.678 36.4948 249.558 38.2243C249.437 39.9538 248.521 41.6317 246.795 43.2455C245.066 44.8616 242.552 46.3855 239.311 47.7935C232.83 50.609 223.542 52.9182 212.104 54.6087C189.237 57.9885 157.886 58.8799 123.477 56.4739Z" fill="white" stroke="#63436D"/>
</svg>
