<svg width="257" height="67" viewBox="0 0 257 67" fill="none" xmlns="http://www.w3.org/2000/svg">
<path d="M129.967 65.6622C94.6713 66.8948 62.6071 64.3771 39.3037 59.3188C27.6481 56.7888 18.2126 53.6293 11.6646 50.0031C5.08462 46.3593 1.57457 42.334 1.42781 38.1314C1.28105 33.9288 4.50176 29.6684 10.8115 25.5745C17.0906 21.5004 26.2828 17.6904 37.7335 14.3535C60.6273 7.68201 92.4377 2.93376 127.733 1.70121C163.029 0.468654 195.093 2.98636 218.397 8.04462C230.052 10.5746 239.488 13.7342 246.036 17.3603C252.616 21.0041 256.126 25.0294 256.272 29.232C256.419 33.4347 253.199 37.695 246.889 41.7889C240.61 45.863 231.418 49.6731 219.967 53.0099C197.073 59.6814 165.263 64.4297 129.967 65.6622Z" fill="currentColor"/>
</svg>
