<svg width="251" height="57" viewBox="0 0 251 57" fill="none" xmlns="http://www.w3.org/2000/svg">
<path d="M126.666 55.591C92.1939 56.7947 60.8933 54.8097 38.1578 50.6339C26.786 48.5453 17.5843 45.9134 11.2053 42.8734C8.01522 41.3531 5.55616 39.7424 3.88496 38.0669C2.2162 36.3939 1.35973 34.6851 1.29922 32.9524C1.23871 31.2197 1.9739 29.4553 3.52189 27.6699C5.07214 25.882 7.41286 24.1037 10.4892 22.3646C16.6406 18.887 25.6362 15.6196 36.8347 12.7428C59.2234 6.99125 90.3093 2.82763 124.781 1.62385C159.253 0.42007 190.553 2.4051 213.289 6.58088C224.661 8.66952 233.862 11.3014 240.241 14.3414C243.432 15.8617 245.891 17.4724 247.562 19.1479C249.231 20.8209 250.087 22.5297 250.148 24.2624C250.208 25.9951 249.473 27.7595 247.925 29.5449C246.375 31.3329 244.034 33.1111 240.958 34.8502C234.806 38.3278 225.811 41.5952 214.612 44.472C192.223 50.2236 161.137 54.3872 126.666 55.591Z" fill="#63436D" stroke="white"/>
</svg>
