<svg width="24" height="24" viewBox="0 0 24 24" fill="none" xmlns="http://www.w3.org/2000/svg">
<path d="M16.8525 14.3173C16.5138 14.2026 16.1674 14.1164 15.8137 14.0598C15.4613 14.0029 15.1054 13.9773 14.7479 13.9809C14.3891 13.985 14.0352 14.0189 13.683 14.0824C13.3312 14.1471 12.9865 14.2395 12.6498 14.362C12.3143 14.4841 11.9909 14.635 11.6798 14.8114C11.3692 14.9893 11.0749 15.1912 10.7988 15.4183C10.5214 15.6457 10.2664 15.8937 10.0318 16.1643C9.79717 16.4349 9.58724 16.7237 9.40151 17.0292C8.24029 18.9865 7.18725 21.0008 6.24189 23.0708C7.22125 21.0156 8.08601 18.9147 8.83885 16.7672C8.95512 16.4282 9.0403 16.0824 9.09705 15.7289C9.15246 15.3759 9.17956 15.0197 9.17568 14.6611C9.17095 14.3044 9.13804 13.9489 9.07341 13.5974C9.01013 13.2455 8.9161 12.9002 8.79413 12.565C8.67167 12.2286 8.52222 11.905 8.34447 11.5947C8.16756 11.2826 7.96427 10.9891 7.7386 10.7128C7.51111 10.4356 7.26184 10.1815 6.99249 9.94668C6.7218 9.71237 6.4343 9.50225 6.12683 9.31597C4.17106 8.15431 2.15685 7.10127 0.0855318 6.15636C2.14028 7.13441 4.24173 8.00057 6.3894 8.75353C6.72808 8.86821 7.07403 8.95314 7.42771 9.00965C7.7814 9.06616 8.13654 9.09353 8.49531 9.08945C8.85227 9.08453 9.20801 9.05144 9.55976 8.98667C9.912 8.92322 10.2549 8.83004 10.5917 8.70747C10.9284 8.58491 11.251 8.43587 11.5616 8.25806C11.8727 8.08157 12.1665 7.87826 12.4431 7.65258C12.7205 7.42509 12.975 7.17585 13.2096 6.90521C13.4442 6.63458 13.6547 6.34715 13.8404 6.04159C15.0016 4.0843 16.0546 2.06999 17 0C16.022 2.05477 15.1559 4.15616 14.403 6.30367C14.2881 6.64219 14.2029 6.98796 14.1462 7.34144C14.0894 7.69493 14.0637 8.05069 14.0671 8.40789C14.0709 8.76642 14.1052 9.12143 14.1685 9.4734C14.2331 9.82488 14.3253 10.1693 14.4478 10.5058C14.5702 10.8422 14.721 11.1654 14.8979 11.4775C15.0757 11.7878 15.2776 12.0818 15.5046 12.3576C15.7321 12.6347 15.9805 12.8907 16.2512 13.125C16.5219 13.3593 16.8094 13.5694 17.1151 13.7549C19.0722 14.916 21.0864 15.9691 23.1564 16.9145C21.1016 15.9364 19.0002 15.0703 16.8525 14.3173Z" fill="#9C7C9C"/>
</svg>
