<svg xmlns="http://www.w3.org/2000/svg" width="23" height="23" viewBox="0 0 23 23" fill="none"><path stroke="" stroke-linecap="round" stroke-linejoin="round" stroke-width="2" d="M8.164 9.259a.556.556 0 1 0 1.11 0V8.148a.556.556 0 1 0-1.11 0v1.11Zm0 0a5.557 5.557 0 0 0 5.553 5.555m0 0h1.11a.555.555 0 1 0 0-1.11h-1.11a.556.556 0 0 0 0 1.11ZM1.5 21.481l1.833-4.222A10.003 10.003 0 0 1 4.77 4.109a9.993 9.993 0 0 1 16.628 5.976 10.004 10.004 0 0 1-7.254 11.06 9.992 9.992 0 0 1-7.036-.664l-5.609 1Z"/></svg>
