<svg xmlns="http://www.w3.org/2000/svg" width="27" height="22" viewBox="0 0 27 22" fill="none"><path stroke="" stroke-linecap="round" stroke-linejoin="round" stroke-width="2" d="M25.477 4.13a3.758 3.758 0 0 0-.797-1.63 3.11 3.11 0 0 0-1.408-.957C21.318 1 13.5 1 13.5 1s-7.818 0-9.772.595a3.11 3.11 0 0 0-1.408.957 3.758 3.758 0 0 0-.797 1.63 42.582 42.582 0 0 0-.522 6.844c-.013 2.312.162 4.62.522 6.895.15.595.43 1.136.816 1.571.387.435.865.75 1.389.913C5.682 21 13.5 21 13.5 21s7.818 0 9.772-.595a3.11 3.11 0 0 0 1.408-.957 3.757 3.757 0 0 0 .797-1.63c.355-2.242.53-4.515.522-6.792a42.597 42.597 0 0 0-.522-6.895Z"/><path stroke="" stroke-linecap="round" stroke-linejoin="round" stroke-width="2" d="m11 15 6-3.5L11 8v7Z"/></svg>
